<?xml version="1.0" encoding="UTF-8" standalone="no"?>
<svg width="160px" height="250px" viewBox="0 0 160 250" version="1.1" xmlns="http://www.w3.org/2000/svg">
  <g stroke="#84beca" stroke-width="1" fill="none">
    <path class="left" d="M 0 0 l 0 0 l 80 25 l -80 25 l 0 200" />
    <path class="middle" d="M 80 0 l 0 125 m 0 50 l 0 75" />
    <path class="right" d="M 160 0 l 0 0 l -80 25 l 80 25 l 0 200" />
    <path class="center" d="M 80 125 l 80 25 l -80 25 l -80 -25 z" />

  </g>
  <g stroke="#db572e" stroke-width="1" stroke-dasharray="4" fill="none">
    <path class="left" d="M 0 0 l 0 0 l 80 25 l -80 25 l 0 200" />
    <path class="middle" d="M 80 0 l 0 125 m 0 50 l 0 75" />
    <path class="right" d="M 160 0 l 0 0 l -80 25 l 80 25 l 0 200" />
    <path class="center" d="M 80 125 l 80 25 l -80 25 l -80 -25 z" />
  </g>
</svg>
