<?xml version="1.0" encoding="utf-8"?>
<!-- Generator: Adobe Illustrator 18.1.0, SVG Export Plug-In . SVG Version: 6.00 Build 0)  -->
<!DOCTYPE svg PUBLIC "-//W3C//DTD SVG 1.1//EN" "http://www.w3.org/Graphics/SVG/1.1/DTD/svg11.dtd">
<svg version="1.1" id="Layer_1" xmlns="http://www.w3.org/2000/svg" xmlns:xlink="http://www.w3.org/1999/xlink" x="0px" y="0px"
	 viewBox="0 0 283.5 283.5" enable-background="new 0 0 283.5 283.5" xml:space="preserve">
<g>
	<g>
		<path fill="#FFFFFF" d="M151.8,3.4C94.5,3.9,39.9,42.2,17.2,94.5c-11.5,26.7-14.6,57.1-3.6,84.5c10.5,26.1,30.3,46.8,53.2,62.6
			c25.1,17.4,54.7,30,84.8,35.5c27.1,4.9,56.4,4.8,81.4-8c55.5-28.5,50.6-108.2,27.6-156.2c-10.4-21.6-26.2-42.8-44.9-58.1
			c-17.7-14.5-38.6-21.7-61.3-23.1c-7-0.4-14.1-0.3-21.2,0.1c-9.6,0.5-9.7,15.6,0,15c21.2-1.2,42.9,0.5,61.6,11.4
			c16.7,9.8,30.2,25.7,41,41.6c14.9,21.9,24.4,47.8,25.9,74.4c1.4,25.3-3.2,55-22.9,72.9c-17.7,16-43.7,19.4-66.6,17.7
			c-28-2.1-55.4-11.6-79.9-25.1c-21.6-11.9-42-27.7-55.5-48.5c-14.1-21.7-18.3-47.1-12-72.3c14-56.1,69.5-100,127.3-100.6
			C161.5,18.3,161.5,3.3,151.8,3.4L151.8,3.4z"/>
	</g>
</g>
</svg>
